<svg xmlns="http://www.w3.org/2000/svg" viewBox="0 0 100 100" role="img" aria-label="Osdag logo">
  <defs>
    <linearGradient id="accent" x1="0%" y1="0%" x2="100%" y2="100%">
      <stop offset="0%" stop-color="#9cc520" />
      <stop offset="100%" stop-color="#5b721a" />
    </linearGradient>
  </defs>
  <rect width="100" height="100" rx="15" fill="url(#accent)" stroke="#111" stroke-width="4" />
  <path d="M70 20H35c-9 0-15 5.4-15 13.8 0 8.4 6.1 13.7 15 13.7h15c3.3 0 5.2 1.5 5.2 4 0 2.4-1.9 4-5.2 4H20v19h45c9.1 0 15.1-5.3 15.1-13.7 0-8.4-6-13.7-15.1-13.7H45c-3.3 0-5.3-1.6-5.3-4 0-2.5 2-4 5.3-4h25z" fill="#f8f9fb" stroke="#111" stroke-width="3" stroke-linecap="round" stroke-linejoin="round" />
</svg>
