<?xml version="1.0" encoding="UTF-8"?>
<svg version="1.1" xmlns="http://www.w3.org/2000/svg" width="100" height="95">
<path d="M0 0 C33 0 66 0 100 0 C100 31.35 100 62.7 100 95 C67 95 34 95 0 95 C0 63.65 0 32.3 0 0 Z " fill="#8EAC13" transform="translate(0,0)"/>
<path d="M0 0 C1.44058734 0.00103805 2.88117754 -0.00000064 4.32176208 -0.00302124 C7.33562718 -0.00284214 10.34841838 0.01794232 13.36206055 0.05419922 C17.22159278 0.09961746 21.07956016 0.10065229 24.93928623 0.08716393 C27.91198089 0.08047603 30.88431981 0.09375864 33.85694695 0.11342239 C35.2798673 0.12110956 36.70282728 0.12342977 38.12576485 0.1202507 C40.11461417 0.11950762 42.10341042 0.14774103 44.09204102 0.17724609 C45.78817284 0.19106827 45.78817284 0.19106827 47.51856995 0.20516968 C51.06339808 0.83921182 52.24629352 1.92127466 54.43359375 4.7265625 C55 6.91015625 55 6.91015625 54.99609375 9.1640625 C55.01800781 9.90527344 55.03992188 10.64648438 55.0625 11.41015625 C54.04962512 15.14080721 52.54446223 16.40882792 49.43359375 18.7265625 C45.47703531 19.42996646 41.5777831 19.30787694 37.5703125 19.21484375 C35.8496331 19.20423164 35.8496331 19.20423164 34.0941925 19.19340515 C30.43582537 19.16545063 26.77899712 19.10270536 23.12109375 19.0390625 C20.638694 19.01398122 18.15627023 18.99116776 15.67382812 18.97070312 C9.59322629 18.91562028 3.51351997 18.83198148 -2.56640625 18.7265625 C-2.56640625 21.3665625 -2.56640625 24.0065625 -2.56640625 26.7265625 C-1.92604935 26.71545944 -1.28569244 26.70435638 -0.62593079 26.69291687 C6.04114835 26.58226747 12.70796653 26.5068717 19.37573242 26.4519043 C21.86379593 26.42676579 24.35178563 26.39265003 26.83959961 26.34936523 C30.41668916 26.2886882 33.9928021 26.26034516 37.5703125 26.23828125 C38.6819426 26.21247482 39.79357269 26.1866684 40.93888855 26.16007996 C48.55448952 26.15731637 48.55448952 26.15731637 52.63574219 28.80004883 C54.88342386 32.45878867 55.06492147 34.75575173 55.0625 39.0390625 C55.06491196 39.73040283 55.06732391 40.42174316 55.06980896 41.1340332 C55.06883331 42.58973958 55.05550664 44.04548436 55.03051758 45.50097656 C54.99618456 47.7206916 55.00987218 49.9364251 55.02929688 52.15625 C55.02239789 53.57553766 55.01272501 54.99481512 55 56.4140625 C54.98912354 57.69667969 54.97824707 58.97929688 54.96704102 60.30078125 C54.3510808 64.25645802 53.22522487 65.91373077 50.43359375 68.7265625 C47.69468782 70.09601546 45.47666965 69.88414979 42.41088867 69.91943359 C40.51333076 69.94352798 40.51333076 69.94352798 38.57743835 69.96810913 C37.18965323 69.97959607 35.8018606 69.9902047 34.4140625 70 C33.71605341 70.00532368 33.01804432 70.01064735 32.29888344 70.01613235 C28.60380781 70.04285815 24.90876589 70.06223418 21.21362305 70.07666016 C18.15700341 70.08999825 15.1010516 70.11784717 12.04467773 70.15869141 C8.35293893 70.20802635 4.66180574 70.23278196 0.96975136 70.23988724 C-0.43568214 70.24659713 -1.84110226 70.2618128 -3.24634743 70.28577805 C-5.21583283 70.3174476 -7.18578249 70.31446333 -9.15551758 70.31005859 C-10.27533524 70.31814545 -11.39515289 70.3262323 -12.54890442 70.33456421 C-16.52556731 69.53329946 -18.03176858 67.81561864 -20.56640625 64.7265625 C-21.01171875 62.6640625 -21.01171875 62.6640625 -20.69140625 60.7265625 C-20.61148437 60.0871875 -20.5315625 59.4478125 -20.44921875 58.7890625 C-19.00296154 55.4101961 -17.5379481 53.96631863 -14.56640625 51.7265625 C-10.61033481 51.0213681 -6.71036803 51.14525334 -2.703125 51.23828125 C-1.5560054 51.24535599 -0.4088858 51.25243073 0.772995 51.25971985 C4.43136213 51.28767437 8.08819038 51.35041964 11.74609375 51.4140625 C14.2284935 51.43914378 16.71091727 51.46195724 19.19335938 51.48242188 C25.27396121 51.53750472 31.35366753 51.62114352 37.43359375 51.7265625 C37.43359375 49.0865625 37.43359375 46.4465625 37.43359375 43.7265625 C36.79323685 43.73766556 36.15287994 43.74876862 35.49311829 43.76020813 C28.82603915 43.87085753 22.15922097 43.9462533 15.49145508 44.0012207 C13.00339157 44.02635921 10.51540187 44.06047497 8.02758789 44.10375977 C4.45049834 44.1644368 0.8743854 44.19277984 -2.703125 44.21484375 C-4.37057014 44.25355339 -4.37057014 44.25355339 -6.07170105 44.29304504 C-13.68883434 44.29580919 -13.68883434 44.29580919 -17.76635742 41.65087891 C-20.00838842 38.00852881 -20.21161437 35.71596543 -20.23046875 31.44921875 C-20.23525238 30.76025009 -20.24003601 30.07128143 -20.2449646 29.36143494 C-20.248354 27.90995998 -20.23921835 26.45840769 -20.21826172 25.00708008 C-20.19151313 22.79789 -20.21801001 20.59379723 -20.25 18.38476562 C-20.24669492 16.96873889 -20.24028663 15.55271531 -20.23046875 14.13671875 C-20.2248291 12.85933838 -20.21918945 11.58195801 -20.21337891 10.26586914 C-19.59415095 6.8783417 -18.96407138 4.39436784 -16.55334473 1.85063171 C-11.66276231 -0.91611381 -5.46393543 -0.0774398 0 0 Z " fill="#FEFEFE" transform="translate(32.56640625,12.2734375)"/>
<path d="M0 0 C28.38 0 56.76 0 86 0 C86 6 86 6 83.90266418 8.83952332 C80.44658271 11.41191301 78.82183917 11.60968283 74.55737305 11.56762695 C72.63594734 11.56706047 72.63594734 11.56706047 70.67570496 11.56648254 C69.28769956 11.54095309 67.8997042 11.51487318 66.51171875 11.48828125 C65.08398173 11.47894881 63.65622864 11.47183473 62.22846985 11.46684265 C58.48142832 11.44780601 54.73536507 11.39873633 50.9887085 11.34332275 C47.16122673 11.29205685 43.33358595 11.2693131 39.50585938 11.24414062 C32.00346159 11.19061232 24.50186818 11.10534252 17 11 C16.566875 11.8971875 16.566875 11.8971875 16.125 12.8125 C15 15 15 15 13 18 C12.58870027 22.55091055 12.62839678 27.11124823 12.62939453 31.6784668 C12.62502161 33.9263893 12.58869631 36.17234679 12.55078125 38.41992188 C12.54491263 39.8515558 12.54094354 41.28319903 12.5390625 42.71484375 C12.53084473 44.01542725 12.52262695 45.31601074 12.51416016 46.65600586 C13.09277155 50.63853868 13.90206056 51.53779131 17 54 C19.48902482 54.61048879 19.48902482 54.61048879 22.22753906 54.54589844 C23.26831604 54.56561707 24.30909302 54.58533569 25.38140869 54.60565186 C26.49820007 54.60688049 27.61499146 54.60810913 28.765625 54.609375 C29.91415955 54.62591125 31.06269409 54.64244751 32.24603271 54.65948486 C35.91407566 54.70806615 39.5817037 54.72935923 43.25 54.75 C45.73700016 54.77815106 48.2239809 54.80807725 50.7109375 54.83984375 C56.80721609 54.91382797 62.90337751 54.96541113 69 55 C69 57.64 69 60.28 69 63 C68.03613373 63.00546844 68.03613373 63.00546844 67.05279541 63.01104736 C60.36913796 63.05283407 53.68616967 63.12215289 47.00292969 63.20751953 C44.50820811 63.23575799 42.01339658 63.25695812 39.51855469 63.27099609 C35.93377534 63.29238499 32.35008082 63.33901708 28.765625 63.390625 C27.09043793 63.39246796 27.09043793 63.39246796 25.38140869 63.39434814 C23.82024323 63.42392609 23.82024323 63.42392609 22.22753906 63.45410156 C21.31264709 63.46298401 20.39775513 63.47186646 19.45513916 63.48101807 C16.25383113 64.15772962 15.03674983 65.49549736 13 68 C12.49644732 69.98469 12.49644732 69.98469 12.5625 72 C12.28886591 75.25928606 12.11765039 75.86158778 9.875 78.5 C7 80 7 80 0 80 C0 53.6 0 27.2 0 0 Z " fill="#8EAC13" transform="translate(1,1)"/>
<path d="M0 0 C33 0 66 0 100 0 C100 31.35 100 62.7 100 95 C67 95 34 95 0 95 C0 63.65 0 32.3 0 0 Z M1 1 C1 27.4 1 53.8 1 81 C7.65140679 81.36636582 7.65140679 81.36636582 12 78 C13.32 78.99 14.64 79.98 16 81 C15.42655063 83.86724686 15.1385485 84.8614515 13 87 C13 89.31 13 91.62 13 94 C41.38 94 69.76 94 99 94 C99 67.6 99 41.2 99 14 C92.34859321 13.63363418 92.34859321 13.63363418 88 17 C86.02 15.35 84.04 13.7 82 12 C83.2375 10.948125 83.2375 10.948125 84.5 9.875 C87.65617871 6.88038409 87.65617871 6.88038409 87 1 C58.62 1 30.24 1 1 1 Z " fill="#010100" transform="translate(0,0)"/>
<path d="M0 0 C0.33 0 0.66 0 1 0 C1.09280363 7.47579559 1.16381701 14.95146637 1.20724869 22.42772198 C1.22809712 25.89953184 1.25636295 29.37094673 1.30175781 32.8425293 C1.35365439 36.83646369 1.37296773 40.82998515 1.390625 44.82421875 C1.41127014 46.06709152 1.43191528 47.30996429 1.45318604 48.59049988 C1.45363922 50.33173882 1.45363922 50.33173882 1.45410156 52.1081543 C1.46298401 53.12741501 1.47186646 54.14667572 1.48101807 55.19682312 C0.87105851 58.75141834 -0.53425947 60.41942822 -3 63 C-5.7781904 64.3890952 -8.08534745 64.16331551 -11.19384766 64.20532227 C-12.49504547 64.22526749 -13.79624329 64.24521271 -15.13687134 64.26576233 C-16.5626005 64.28274673 -17.98833093 64.29962553 -19.4140625 64.31640625 C-20.86852613 64.33697521 -22.32298377 64.35797166 -23.7774353 64.37937927 C-27.60786088 64.43460604 -31.43834045 64.4840126 -35.26885986 64.53222656 C-39.1766847 64.5824372 -43.084431 64.63812554 -46.9921875 64.69335938 C-54.66139185 64.80094833 -62.33066145 64.90239162 -70 65 C-70 64.34 -70 63.68 -70 63 C-69.20930618 62.99857498 -68.41861237 62.99714996 -67.60395813 62.99568176 C-60.14409712 62.97783545 -52.68492586 62.93617485 -45.22536945 62.86790943 C-41.39048286 62.83365089 -37.55599412 62.80853135 -33.72094727 62.80444336 C-30.01825057 62.80015775 -26.31645118 62.77167546 -22.61403465 62.72656822 C-21.20313943 62.71360123 -19.79213677 62.70928279 -18.38118935 62.71384621 C-16.40159152 62.71875663 -14.42199816 62.68977706 -12.44262695 62.65942383 C-11.31677689 62.65276199 -10.19092682 62.64610016 -9.03096008 62.63923645 C-5.03144613 61.79572976 -3.52021454 60.15370559 -1 57 C-0.25115062 53.50119759 -0.25115062 53.50119759 -0.37109375 49.65234375 C-0.36868179 48.95863174 -0.36626984 48.26491974 -0.36378479 47.55018616 C-0.36476032 46.09028378 -0.37808426 44.63034307 -0.40307617 43.1706543 C-0.43746202 40.93996388 -0.42370797 38.71322314 -0.40429688 36.48242188 C-0.41119421 35.05987903 -0.4208656 33.63734637 -0.43359375 32.21484375 C-0.44990845 30.28306274 -0.44990845 30.28306274 -0.46655273 28.31225586 C-1.10035171 24.37690086 -1.93126705 23.44481435 -5 21 C-7.48902482 20.38951121 -7.48902482 20.38951121 -10.22753906 20.45410156 C-11.26831604 20.43438293 -12.30909302 20.41466431 -13.38140869 20.39434814 C-14.49820007 20.39311951 -15.61499146 20.39189087 -16.765625 20.390625 C-17.91415955 20.37408875 -19.06269409 20.35755249 -20.24603271 20.34051514 C-23.91407566 20.29193385 -27.5817037 20.27064077 -31.25 20.25 C-33.73700016 20.22184894 -36.2239809 20.19192275 -38.7109375 20.16015625 C-44.80721609 20.08617203 -50.90337751 20.03458887 -57 20 C-57 17.36 -57 14.72 -57 12 C-56.35742249 11.99635437 -55.71484497 11.99270874 -55.05279541 11.98895264 C-48.36913796 11.94716593 -41.68616967 11.87784711 -35.00292969 11.79248047 C-32.50820811 11.76424201 -30.01339658 11.74304188 -27.51855469 11.72900391 C-23.93377534 11.70761501 -20.35008082 11.66098292 -16.765625 11.609375 C-15.09043793 11.60753204 -15.09043793 11.60753204 -13.38140869 11.60565186 C-12.34063171 11.58593323 -11.29985474 11.5662146 -10.22753906 11.54589844 C-9.31264709 11.53701599 -8.39775513 11.52813354 -7.45513916 11.51898193 C-4.21274174 10.83358466 -3.02029469 9.58416788 -1 7 C-0.19234122 3.35278304 -0.19234122 3.35278304 0 0 Z " fill="#181A12" transform="translate(87,19)"/>
<path d="M0 0 C0.66 0.33 1.32 0.66 2 1 C1.35095703 1.67345459 0.70191406 2.34690918 0.03320312 3.04077148 C-2.50582769 6.73620767 -2.51566046 8.89377979 -2.53125 13.34765625 C-2.5350769 14.04136826 -2.53890381 14.73508026 -2.54284668 15.44981384 C-2.54555756 16.90967265 -2.53825402 18.3695807 -2.52148438 19.8293457 C-2.50002541 22.05985864 -2.52132559 24.28716349 -2.546875 26.51757812 C-2.54423221 27.94011125 -2.53910822 29.36264238 -2.53125 30.78515625 C-2.52673828 32.07301025 -2.52222656 33.36086426 -2.51757812 34.68774414 C-1.90143739 38.63075419 -1.07247509 39.55326248 2 42 C4.48902482 42.61048879 4.48902482 42.61048879 7.22753906 42.54589844 C8.26831604 42.56561707 9.30909302 42.58533569 10.38140869 42.60565186 C11.49820007 42.60688049 12.61499146 42.60810913 13.765625 42.609375 C14.91415955 42.62591125 16.06269409 42.64244751 17.24603271 42.65948486 C20.91407566 42.70806615 24.5817037 42.72935923 28.25 42.75 C30.73700016 42.77815106 33.2239809 42.80807725 35.7109375 42.83984375 C41.80721609 42.91382797 47.90337751 42.96541113 54 43 C54 45.64 54 48.28 54 51 C53.03613373 51.00546844 53.03613373 51.00546844 52.05279541 51.01104736 C45.36913796 51.05283407 38.68616967 51.12215289 32.00292969 51.20751953 C29.50820811 51.23575799 27.01339658 51.25695812 24.51855469 51.27099609 C20.93377534 51.29238499 17.35008082 51.33901708 13.765625 51.390625 C12.09043793 51.39246796 12.09043793 51.39246796 10.38140869 51.39434814 C8.82024323 51.42392609 8.82024323 51.42392609 7.22753906 51.45410156 C6.31264709 51.46298401 5.39775513 51.47186646 4.45513916 51.48101807 C1.21274174 52.16641534 0.02029469 53.41583212 -2 56 C-2.80765878 59.64721696 -2.80765878 59.64721696 -3 63 C-3.33 63 -3.66 63 -4 63 C-4.09280363 55.52420441 -4.16381701 48.04853363 -4.20724869 40.57227802 C-4.22809712 37.10046816 -4.25636295 33.62905327 -4.30175781 30.1574707 C-4.35365439 26.16353631 -4.37296773 22.17001485 -4.390625 18.17578125 C-4.41127014 16.93290848 -4.43191528 15.69003571 -4.45318604 14.40950012 C-4.45348816 13.24867416 -4.45379028 12.08784821 -4.45410156 10.8918457 C-4.46298401 9.87258499 -4.47186646 8.85332428 -4.48101807 7.80317688 C-3.8775321 4.28630708 -2.39177986 2.58604765 0 0 Z " fill="#809C11" transform="translate(16,13)"/>
<path d="M0 0 C4.29 0 8.58 0 13 0 C13 4.62 13 9.24 13 14 C9.19140625 14.68359375 9.19140625 14.68359375 5.3828125 15.3671875 C2.83494012 15.83044703 2.83494012 15.83044703 1 18 C0.30977249 17.35125916 -0.38045502 16.70251831 -1.09159851 16.03411865 C-4.56060983 13.60791283 -6.34136236 13.48666903 -10.53442383 13.45410156 C-12.48588066 13.42452362 -12.48588066 13.42452362 -14.47676086 13.39434814 C-15.88685056 13.39268523 -17.29694082 13.39145423 -18.70703125 13.390625 C-20.15721987 13.37563676 -21.60739146 13.35890825 -23.05754089 13.34051514 C-26.86331992 13.29690071 -30.66886871 13.27685596 -34.47485352 13.26177979 C-38.36293112 13.24218712 -42.25076085 13.20021964 -46.13867188 13.16015625 C-53.75904785 13.08491837 -61.37931958 13.03458843 -69 13 C-69 12.67 -69 12.34 -69 12 C-68.20708557 11.99635437 -67.41417114 11.99270874 -66.597229 11.98895264 C-59.12239856 11.95107592 -51.64806671 11.89422776 -44.17355728 11.81609726 C-40.33085682 11.77659821 -36.48838633 11.74442198 -32.64550781 11.72900391 C-28.93641985 11.71385278 -25.22796401 11.6794362 -21.51915741 11.63169098 C-20.10464728 11.61686096 -18.69004691 11.60895805 -17.27545929 11.60811615 C-15.29323296 11.60575002 -13.31109451 11.57640694 -11.32910156 11.54589844 C-10.20103088 11.53701599 -9.07296021 11.52813354 -7.91070557 11.51898193 C-4.33560833 10.88153825 -3.15961712 9.87754713 -1 7 C-0.19234122 3.35278304 -0.19234122 3.35278304 0 0 Z " fill="#0C0D08" transform="translate(87,0)"/>
<path d="M0 0 C18.15 0 36.3 0 55 0 C55 1.65 55 3.3 55 5 C36.85 5 18.7 5 0 5 C0 3.35 0 1.7 0 0 Z " fill="#8BA913" transform="translate(32,32)"/>
<path d="M0 0 C0.66 0.33 1.32 0.66 2 1 C1.35095703 1.67345459 0.70191406 2.34690918 0.03320312 3.04077148 C-2.50582769 6.73620767 -2.51566046 8.89377979 -2.53125 13.34765625 C-2.5350769 14.04136826 -2.53890381 14.73508026 -2.54284668 15.44981384 C-2.54555756 16.90967265 -2.53825402 18.3695807 -2.52148438 19.8293457 C-2.50002541 22.05985864 -2.52132559 24.28716349 -2.546875 26.51757812 C-2.54423221 27.94011125 -2.53910822 29.36264238 -2.53125 30.78515625 C-2.52673828 32.07301025 -2.52222656 33.36086426 -2.51757812 34.68774414 C-1.90143739 38.63075419 -1.07247509 39.55326248 2 42 C4.48902482 42.61048879 4.48902482 42.61048879 7.22753906 42.54589844 C8.26831604 42.56561707 9.30909302 42.58533569 10.38140869 42.60565186 C11.49820007 42.60688049 12.61499146 42.60810913 13.765625 42.609375 C14.91415955 42.62591125 16.06269409 42.64244751 17.24603271 42.65948486 C20.91407566 42.70806615 24.5817037 42.72935923 28.25 42.75 C30.73700016 42.77815106 33.2239809 42.80807725 35.7109375 42.83984375 C41.80721609 42.91382797 47.90337751 42.96541113 54 43 C54 45.64 54 48.28 54 51 C53.03613373 51.00546844 53.03613373 51.00546844 52.05279541 51.01104736 C45.36913796 51.05283407 38.68616967 51.12215289 32.00292969 51.20751953 C29.50820811 51.23575799 27.01339658 51.25695812 24.51855469 51.27099609 C20.93377534 51.29238499 17.35008082 51.33901708 13.765625 51.390625 C12.09043793 51.39246796 12.09043793 51.39246796 10.38140869 51.39434814 C8.82024323 51.42392609 8.82024323 51.42392609 7.22753906 51.45410156 C6.31264709 51.46298401 5.39775513 51.47186646 4.45513916 51.48101807 C1.21274174 52.16641534 0.02029469 53.41583212 -2 56 C-2.80765878 59.64721696 -2.80765878 59.64721696 -3 63 C-3.33 63 -3.66 63 -4 63 C-4.09280363 55.52420441 -4.16381701 48.04853363 -4.20724869 40.57227802 C-4.22809712 37.10046816 -4.25636295 33.62905327 -4.30175781 30.1574707 C-4.35365439 26.16353631 -4.37296773 22.17001485 -4.390625 18.17578125 C-4.41127014 16.93290848 -4.43191528 15.69003571 -4.45318604 14.40950012 C-4.45348816 13.24867416 -4.45379028 12.08784821 -4.45410156 10.8918457 C-4.46298401 9.87258499 -4.47186646 8.85332428 -4.48101807 7.80317688 C-3.8775321 4.28630708 -2.39177986 2.58604765 0 0 Z M-3 44 C-3 45.98 -3 47.96 -3 50 C15.48 50 33.96 50 53 50 C53 48.02 53 46.04 53 44 C34.52 44 16.04 44 -3 44 Z " fill="#20221A" transform="translate(16,13)"/>
<path d="M0 0 C0.99 0.495 0.99 0.495 2 1 C2 2.65 2 4.3 2 6 C20.15 6 38.3 6 57 6 C55.68 6.33 54.36 6.66 53 7 C52.67 7.66 52.34 8.32 52 9 C34.84 8.67 17.68 8.34 0 8 C0 5.36 0 2.72 0 0 Z " fill="#4E572C" transform="translate(30,31)"/>
</svg>
